<?xml version="1.0" encoding="utf-8"?>
<!-- Generator: Adobe Illustrator 21.1.0, SVG Export Plug-In . SVG Version: 6.00 Build 0)  -->
<svg version="1.1" id="Layer_1" xmlns="http://www.w3.org/2000/svg" xmlns:xlink="http://www.w3.org/1999/xlink" x="0px" y="0px"
	 viewBox="0 0 324.4 478.5" style="enable-background:new 0 0 324.4 478.5;" xml:space="preserve">
<style type="text/css">
	.st0{fill:#FFD520;}
	.st1{fill:#658AB2;}
	.st2{fill:#004677;}
</style>
<g>
	<polygon class="st0" points="243.9,75.8 170.4,48.2 242.2,24.5 242.2,24.5 314.7,48.3 243.9,75.8 	"/>
	<polygon class="st0" points="94.9,19.8 159.4,44.1 231.4,21 231.4,21 167.2,0 94.9,19.8 	"/>
	<polygon class="st0" points="233.8,79.8 159.4,108.8 82.2,77.3 82.2,77.3 159.9,51.7 159.9,51.7 233.8,79.8 	"/>
	<polyline class="st0" points="84,22.8 148.8,47.5 148.8,47.5 69.9,72.8 3.2,45 84,22.8 	"/>
	<polygon class="st1" points="250,418.2 250,292.8 250,292.8 239,298.6 239,425.9 164.4,478.5 164.7,115.5 239,86.1 239,201.6 
		239,201.6 250,195.8 250,81.7 319.4,54.3 293.7,226.8 324.4,365.8 	"/>
	<polygon class="st2" points="153,476.5 153,476.5 76,425.2 76,425.2 76,303.4 76,303.4 63,295.4 63,295.4 63,416.6 63,416.6 0,375 
		0,375 0,51.4 63,78 63,78 63,189.9 76,196.9 76,196.9 76,83.5 76,83.5 153,116 	"/>
</g>
</svg>
