<svg xmlns="http://www.w3.org/2000/svg" xmlns:xlink="http://www.w3.org/1999/xlink" width="2in" height="0.67in" viewBox="0 0 143.81 47.92"><defs><clipPath id="a" transform="translate(-6.5 -8.26)"><rect x="6.5" y="7.88" width="144.45" height="48.28" style="fill:none"/></clipPath></defs><title>popeyes</title><g style="clip-path:url(#a)"><path d="M150.31,49.12a6.92,6.92,0,0,1-6.81,7l-129.43,0a7,7,0,0,1,0-14.07l129.42,0a6.94,6.94,0,0,1,6.82,7" transform="translate(-6.5 -8.26)" style="fill:#c41230"/><path d="M14.67,52.48s0,0,0,0a.81.81,0,0,0-.16-.27,1.29,1.29,0,0,1-.16-.17,1.09,1.09,0,0,1-.22-1l.09-.31a3.34,3.34,0,0,0,.1-.43,1.48,1.48,0,0,0,0-.21s-.1,0-.11,0a1.46,1.46,0,0,1,0,.2,2.23,2.23,0,0,1-.16.43,1.18,1.18,0,0,1-.25.3.63.63,0,0,1-.71.12.49.49,0,0,1,0-.85.13.13,0,0,1,.08,0v0a.33.33,0,0,0,.12.29.35.35,0,0,0,.4,0,.6.6,0,0,0,.16-.25.4.4,0,0,0,0-.2c0-.05-.19,0-.27-.07a.18.18,0,0,1-.07-.17l0-.07c.08-.12.29,0,.31-.11a.5.5,0,0,0-.07-.25.63.63,0,0,0-.46-.38.49.49,0,0,0-.33.09.35.35,0,0,0-.15.29.81.81,0,0,0,0,.15.72.72,0,0,1-.5-.15s0,0,0,0A1.08,1.08,0,0,1,12,49l0-.15a.9.9,0,0,1,.5-.92.92.92,0,0,1,.59-.09,1.16,1.16,0,0,1,.57.3,2.25,2.25,0,0,1,.47.82.06.06,0,0,1,0,0,2.23,2.23,0,0,1,.1.43c0,.1,0,.18,0,.25s.1,0,.1,0a1.93,1.93,0,0,0,0-.24,3,3,0,0,0-.09-.43,9.24,9.24,0,0,0-.39-1,1.66,1.66,0,0,1-.14-.66,1.26,1.26,0,0,1,.17-.57,4.7,4.7,0,0,1,.52-.58,1.4,1.4,0,0,0,.26-.64l0,0,0,0a1.4,1.4,0,0,0,.26.64,4.7,4.7,0,0,1,.52.58,1.26,1.26,0,0,1,.17.57,1.66,1.66,0,0,1-.14.66,9.24,9.24,0,0,0-.39,1,3.29,3.29,0,0,0-.09.43c0,.08,0,.16,0,.24s.1,0,.1,0,0-.15,0-.25a2.23,2.23,0,0,1,.1-.43v0a2.25,2.25,0,0,1,.47-.82,1.16,1.16,0,0,1,.57-.3.92.92,0,0,1,.59.09.9.9,0,0,1,.5.92l0,.15a1,1,0,0,1-.3.43s0,0,0,0a.72.72,0,0,1-.5.15.39.39,0,0,0,0-.15.35.35,0,0,0-.15-.29.47.47,0,0,0-.33-.09.64.64,0,0,0-.46.38.66.66,0,0,0-.07.25c0,.07.23,0,.31.11l0,.07a.16.16,0,0,1-.07.17c-.08.06-.26,0-.27.07a.55.55,0,0,0,0,.2.72.72,0,0,0,.16.25.35.35,0,0,0,.4,0,.34.34,0,0,0,.12-.29v0a.11.11,0,0,1,.08,0,.49.49,0,0,1,0,.85.64.64,0,0,1-.72-.12,1.13,1.13,0,0,1-.24-.3,1.75,1.75,0,0,1-.17-.43c0-.07,0-.13,0-.2s-.11,0-.11,0a1.48,1.48,0,0,0,0,.21,3.34,3.34,0,0,0,.1.43l.09.31A1,1,0,0,1,15,52l-.15.17a.73.73,0,0,0-.17.27s0,0,0,0" transform="translate(-6.5 -8.26)" style="fill:#f58426"/><path d="M142.55,52.46s0,0,0,0a.83.83,0,0,0-.17-.27L142.2,52a1,1,0,0,1-.22-1c0-.1.06-.21.09-.31a3,3,0,0,0,.1-.43c0-.07,0-.14,0-.21s-.1,0-.11,0l0,.2a1.61,1.61,0,0,1-.17.43,1.13,1.13,0,0,1-.24.3.64.64,0,0,1-.72.12.49.49,0,0,1,0-.85.11.11,0,0,1,.08,0v0a.32.32,0,0,0,.11.29.35.35,0,0,0,.41,0,.72.72,0,0,0,.16-.25.92.92,0,0,0,0-.2s-.19,0-.27-.07a.16.16,0,0,1-.07-.17.36.36,0,0,1,0-.07c.08-.12.29,0,.31-.1a.9.9,0,0,0-.07-.26.64.64,0,0,0-.46-.38.52.52,0,0,0-.34.09.37.37,0,0,0-.14.29.38.38,0,0,0,0,.15.72.72,0,0,1-.5-.15h0a1,1,0,0,1-.3-.43.4.4,0,0,1,0-.15.91.91,0,0,1,.49-.92,1,1,0,0,1,.6-.08,1.06,1.06,0,0,1,.57.3,2.13,2.13,0,0,1,.47.81v0a2.23,2.23,0,0,1,.1.43c0,.1,0,.18,0,.25s.1,0,.1,0a1.94,1.94,0,0,0,0-.24,2.17,2.17,0,0,0-.08-.43c-.1-.34-.26-.66-.39-1a1.51,1.51,0,0,1-.14-.66,1.15,1.15,0,0,1,.17-.57,4.61,4.61,0,0,1,.51-.57,1.5,1.5,0,0,0,.26-.64.05.05,0,0,1,0,0,0,0,0,0,1,0,0,1.41,1.41,0,0,0,.26.63,3.93,3.93,0,0,1,.51.58,1.16,1.16,0,0,1,.18.57,1.86,1.86,0,0,1-.14.66,9.24,9.24,0,0,0-.39,1,3.29,3.29,0,0,0-.09.43,1.93,1.93,0,0,0,0,.24s.1,0,.1,0,0-.16,0-.26a3.29,3.29,0,0,1,.09-.43l0,0a2,2,0,0,1,.47-.81,1,1,0,0,1,.56-.3.93.93,0,0,1,.6.08.9.9,0,0,1,.5.92.83.83,0,0,1,0,.15.91.91,0,0,1-.3.43h0a.7.7,0,0,1-.5.15.39.39,0,0,0,0-.15.35.35,0,0,0-.15-.29A.49.49,0,0,0,144,49a.63.63,0,0,0-.46.38.51.51,0,0,0-.07.26c0,.06.23,0,.31.1l0,.07a.18.18,0,0,1-.07.17c-.09.06-.26,0-.27.07a.4.4,0,0,0,.05.2.6.6,0,0,0,.16.25.33.33,0,0,0,.4,0,.33.33,0,0,0,.12-.29v0a.16.16,0,0,1,.09,0,.49.49,0,0,1-.05.85.64.64,0,0,1-.72-.12,1.13,1.13,0,0,1-.24-.3,2,2,0,0,1-.16-.43,1.46,1.46,0,0,1-.05-.2s-.11,0-.11,0a1.41,1.41,0,0,0,0,.2,3.34,3.34,0,0,0,.1.43l.09.31a1.09,1.09,0,0,1-.22,1c-.06.06-.1.12-.16.17a.81.81,0,0,0-.16.27s0,0,0,0" transform="translate(-6.5 -8.26)" style="fill:#f58426"/><path d="M19.89,51.93v-.86h.49a.35.35,0,0,0,.39-.4V47.42c0-.27-.12-.4-.39-.4h-.49v-.86h3.87V47h-.59c-.27,0-.39.13-.39.4v3.24c0,.37.07.41.51.41h.53c.6,0,1.05-.37,1.05-1.23v-.52h1v2.61Z" transform="translate(-6.5 -8.26)" style="fill:#fff"/><path d="M30.06,52a3,3,0,1,1,0-6,3,3,0,1,1,0,6m0-5.06c-.71,0-.93.41-.94,2s.23,2.08.94,2.08S31,50.66,31,49s-.22-2-.93-2" transform="translate(-6.5 -8.26)" style="fill:#fff"/><path d="M40.42,47c-.27,0-.4.21-.4.48v2C40,51.37,39,52,37.43,52c-1.76,0-2.86-.48-2.86-2.37V47.42c0-.27-.1-.4-.41-.4h-.22v-.86h3.41V47H37a.36.36,0,0,0-.4.41v2.42c0,.78.5,1.07,1.27,1.07A1,1,0,0,0,39,49.82V47.49c0-.27-.13-.47-.4-.47h-.35v-.86h2.54V47Z" transform="translate(-6.5 -8.26)" style="fill:#fff"/><path d="M41.88,51.93v-.86h.55c.27,0,.32-.06.32-.34V47.48c0-.27-.12-.46-.39-.46h-.49v-.86H45.6V47h-.49c-.28,0-.32.12-.32.39v3.25c0,.27.12.41.39.41h.42v.86Z" transform="translate(-6.5 -8.26)" style="fill:#fff"/><path d="M50,52a9.76,9.76,0,0,1-1.8-.29.24.24,0,0,0-.22.23H47.2V49.72h.92v.17c0,.81.66,1.15,1.49,1.15s1.14-.21,1.14-.57-.18-.47-1-.65l-1.23-.26a1.6,1.6,0,0,1-1.36-1.63c0-1.29,1.18-1.87,2.49-1.87a5.14,5.14,0,0,1,1.39.28c.22,0,.27-.09.28-.21h.87v2h-1V48c0-.67-.54-1-1.26-1s-1,.08-1,.43.13.42.8.57l1.27.29a1.61,1.61,0,0,1,1.47,1.63C52.48,51.47,51.25,52,50,52" transform="translate(-6.5 -8.26)" style="fill:#fff"/><path d="M53.5,51.93v-.87h.55c.27,0,.33-.06.32-.33V47.48c0-.27-.12-.46-.39-.46H53.5v-.87h3.72V47h-.49c-.27,0-.32.12-.32.39v3.25c0,.27.12.4.39.4h.42v.87Z" transform="translate(-6.5 -8.26)" style="fill:#fff"/><path d="M61.65,51.92v-.86h.61c.25,0,.34-.16.27-.36l-.14-.39h-2.1l-.13.35c-.1.28,0,.4.3.4h.48v.87H58.27v-.87h.15a.58.58,0,0,0,.59-.32l1.82-4.59h1.94l1.77,4.49a.55.55,0,0,0,.54.42h.21v.87Zm-.29-4.34-.74,1.9h1.45Z" transform="translate(-6.5 -8.26)" style="fill:#fff"/><path d="M73.23,47a.35.35,0,0,0-.4.4v4.51h-1.9l-2.64-3.68v2.42a.35.35,0,0,0,.4.4h.5v.86H66.31v-.86h.49a.35.35,0,0,0,.4-.4V47.48c0-.27-.13-.47-.4-.47h-.49v-.86h2.83l2.57,3.59V47.41c0-.27-.12-.4-.39-.4h-.49v-.86H73.7V47Z" transform="translate(-6.5 -8.26)" style="fill:#fff"/><path d="M77.57,51.92v-.86h.61c.25,0,.34-.16.27-.37l-.14-.38h-2.1l-.12.35c-.11.28,0,.4.3.4h.47v.86H74.19v-.86h.16a.57.57,0,0,0,.58-.32l1.82-4.59h1.94l1.77,4.49a.55.55,0,0,0,.54.42h.21v.86Zm-.29-4.35-.74,1.91H78Z" transform="translate(-6.5 -8.26)" style="fill:#fff"/><path d="M89.09,51.92v-.86h.34c.19,0,.33-.08.33-.23a.64.64,0,0,0-.12-.33l-.76-1.07-.74.65v.59c0,.27,0,.39.31.39h.36v.86H85.28v-.86h.49c.27,0,.39-.14.39-.41V47.41c0-.27-.12-.4-.39-.4h-.49v-.86H89V47h-.55c-.27,0-.31.13-.31.4v1.52l1.6-1.42a.36.36,0,0,0,.16-.31.19.19,0,0,0-.2-.19h-.34v-.86h3.17V47H92a1.1,1.1,0,0,0-.68.32l-1,.92L92,50.75c.18.25.25.31.43.31h.39v.86Z" transform="translate(-6.5 -8.26)" style="fill:#fff"/><path d="M94.18,51.92v-.86h.56c.26,0,.32-.06.32-.34V47.47c0-.27-.12-.46-.39-.46h-.49v-.86h3.73V47h-.5c-.27,0-.31.13-.31.4v3.24c0,.27.12.41.39.41h.42v.86Z" transform="translate(-6.5 -8.26)" style="fill:#fff"/><path d="M104.6,48.66v-.72c0-.61-.26-1-.87-1h-.27v3.61a.47.47,0,0,0,.48.48h.64v.86h-4.26v-.86H101a.46.46,0,0,0,.47-.48V47h-.27c-.61,0-.86.36-.86,1v.72h-1V46.15h6.24v2.51Z" transform="translate(-6.5 -8.26)" style="fill:#fff"/><path d="M109.44,52a3,3,0,1,1,0-6,3.67,3.67,0,0,1,1.25.24c.14.06.16,0,.26-.24h.94v2.31h-1v-.21c0-.68-.31-1.13-1-1.13s-1.19.67-1.19,2c0,1.51.35,2.1,1.27,2.1s1-.47,1.08-1.28v-.28h1v.28c0,1.14-.67,2.22-2.56,2.22" transform="translate(-6.5 -8.26)" style="fill:#fff"/><path d="M117.28,51.92v-.86h.32c.27,0,.39-.14.39-.41V49.43h-1.73v1.22c0,.27.12.41.4.41H117v.86h-3.6v-.86h.49c.27,0,.39-.14.38-.41V47.4c0-.27-.12-.39-.38-.39h-.49v-.87H117V47h-.33c-.27,0-.39.12-.39.39v1.12H118V47.4c0-.27-.12-.39-.39-.39h-.32v-.87h3.59V47h-.49c-.27,0-.38.12-.38.39v3.25c0,.27.11.4.38.4h.49v.87Z" transform="translate(-6.5 -8.26)" style="fill:#fff"/><path d="M122.28,51.92v-.87h.49c.27,0,.39-.06.39-.33V47.33c0-.27-.12-.32-.39-.32h-.49v-.87h6v2.34h-1V48.1c0-.75-.4-1.1-1-1.1h-.78c-.27,0-.4.06-.4.33v1.23h.42c.24,0,.34-.15.34-.4v-.48h.87v2.73h-.87v-.62a.33.33,0,0,0-.36-.38h-.4v1.31c0,.27.09.33.36.33h.72c.73,0,1.17-.25,1.17-1.2v-.36h1v2.43Z" transform="translate(-6.5 -8.26)" style="fill:#fff"/><path d="M136.76,47a.35.35,0,0,0-.4.4v4.52h-1.9l-2.63-3.69v2.42c0,.27.12.4.39.4h.51v.87h-2.88v-.87h.48a.35.35,0,0,0,.4-.4V47.47c0-.27-.13-.47-.4-.47h-.48v-.86h2.82l2.57,3.59V47.4c0-.27-.12-.4-.39-.4h-.5v-.86h2.88V47Z" transform="translate(-6.5 -8.26)" style="fill:#fff"/><path d="M113.56,12.6c0,5.91-3.09,10.93-7.4,12.77v9.48H99V25.39c-4.33-1.82-7.44-6.86-7.44-12.79v-3H98.9V15c0,2.44,1.61,4.41,3.59,4.41s3.6-2,3.6-4.42V9.61h7.46Z" transform="translate(-6.5 -8.26)" style="fill:#f58426"/><path d="M29.68,20.63c0-6.81,4.47-12.35,10-12.37s10,5.5,10.07,12.32-4.46,12.35-10,12.36-10.06-5.5-10.07-12.31m8.7,6.52c2.33,0,4.2-2.2,4.2-4.87a4.57,4.57,0,0,0-4.22-4.85c-2.34,0-4.21,2.2-4.21,4.88s1.89,4.84,4.23,4.84" transform="translate(-6.5 -8.26)" style="fill:#f58426"/><path d="M132.67,29.53c1.33,1.09,4.23,3.21,7.11,3.69,3.93.63,9.18-1.41,9.76-5,1.41-8.6-9.06-8.07-8.29-12.75a2.45,2.45,0,0,1,3.15-2c2.25.35,5.23,2.76,5.23,2.76l0-6.11a14.59,14.59,0,0,0-4.81-1.5c-4.53-.73-10.69.38-11.43,5-1.06,6.46,7.85,6.68,7.2,10.65,0,0-.36,2.41-3.41,1.91A13.39,13.39,0,0,1,132.72,24Z" transform="translate(-6.5 -8.26)" style="fill:#f58426"/><path d="M15.86,28v6.85H8.78V17.23H6.5V9.86H9.33c6.59,0,19.37.52,19.33,10.47C28.62,28.3,16,28,16,28ZM16,22.83s4.55.3,4.57-2.59c0-3.32-4.54-3-4.54-3h0v5.54Z" transform="translate(-6.5 -8.26)" style="fill:#f58426"/><path d="M59.65,28v6.84H52.58V17.22H50.3V9.86h2.83c6.59,0,19.37.51,19.33,10.47,0,8-12.71,7.61-12.71,7.61Zm.12-5.14s4.55.3,4.56-2.6c0-3.31-4.53-3-4.53-3h0v5.55Z" transform="translate(-6.5 -8.26)" style="fill:#f58426"/><path d="M88.06,22.73s-.55-4.21-4.49-4.13c-3.29.06-3.84,4.14-3.84,4.14ZM91.44,33c-1.88,2.74-5.21,5.12-8.35,5.12-5.65,0-10.23-5.63-10.24-12.58S77.44,12.76,83.08,13c7.51.32,9.92,5.62,9.5,14.36l-13.18,0s.38,8.32,10.23,2.94Z" transform="translate(-6.5 -8.26)" style="fill:#f58426"/><path d="M127.14,22.73s-.55-4.22-4.49-4.14c-3.29.07-3.83,4.15-3.83,4.15ZM130.52,33c-1.88,2.73-5.21,5.11-8.35,5.11-5.65,0-10.23-5.63-10.23-12.57S116.52,12.75,122.17,13c7.5.31,9.91,5.62,9.49,14.36l-13.18,0s.39,8.31,10.23,2.93Z" transform="translate(-6.5 -8.26)" style="fill:#f58426"/><path d="M148.19,33.86h-.3v.44h.28c.26,0,.36-.06.36-.23s-.1-.21-.34-.21m.33,1.31-.39-.65h-.24v.65h-.25V33.65h.58c.38,0,.56.13.56.44s-.12.37-.4.41l.43.67Zm-.36-2a1.2,1.2,0,0,0,0,2.39,1.2,1.2,0,1,0,0-2.39m0,2.57a1.38,1.38,0,1,1,1.38-1.38,1.38,1.38,0,0,1-1.38,1.38" transform="translate(-6.5 -8.26)" style="fill:#f58426"/></g></svg>