<svg width="117" height="163" viewBox="0 0 117 163" version="1.1" xmlns="http://www.w3.org/2000/svg" xmlns:xlink="http://www.w3.org/1999/xlink">
<title>carafe</title>
<desc>Created using Figma</desc>
<g id="Canvas" transform="translate(-2115 -385)">
<g id="carafe">
<g id="shadow">
<use xlink:href="#path0_fill" transform="translate(2115 487)" fill="url(#paint0_radial)"/>
</g>
<g id="Ellipse">
<use xlink:href="#path1_fill" transform="translate(2123 425.934)" fill="url(#paint1_radial)"/>
<mask id="mask0_outline_ins">
<use xlink:href="#path1_fill" fill="white" transform="translate(2123 425.934)"/>
</mask>
<g mask="url(#mask0_outline_ins)">
<use xlink:href="#path2_stroke_2x" transform="translate(2123 425.934)" fill="#202020"/>
</g>
</g>
<g id="Subtract">
<use xlink:href="#path3_fill" transform="translate(2137.74 439.693)" fill="#434947"/>
<mask id="mask1_outline_ins">
<use xlink:href="#path3_fill" fill="white" transform="translate(2137.74 439.693)"/>
</mask>
<g mask="url(#mask1_outline_ins)">
<use xlink:href="#path4_stroke_2x" transform="translate(2137.74 439.693)" fill="#262722"/>
</g>
</g>
<g id="Intersect">
<use xlink:href="#path5_fill" transform="translate(2138.77 424.214)" fill="#535353"/>
<mask id="mask2_outline_ins">
<use xlink:href="#path5_fill" fill="white" transform="translate(2138.77 424.214)"/>
</mask>
<g mask="url(#mask2_outline_ins)">
<use xlink:href="#path6_stroke_2x" transform="translate(2138.77 424.214)" fill="#424040"/>
</g>
</g>
<g id="Ellipse 2.3">
<use xlink:href="#path7_fill" transform="translate(2141.17 409.423)" fill="#616A6D"/>
<mask id="mask3_outline_ins">
<use xlink:href="#path7_fill" fill="white" transform="translate(2141.17 409.423)"/>
</mask>
<g mask="url(#mask3_outline_ins)">
<use xlink:href="#path8_stroke_2x" transform="translate(2141.17 409.423)" fill="#424040"/>
</g>
</g>
<g id="Vector 2">
<use xlink:href="#path9_fill" transform="translate(2152.14 422.15)" fill="#362820"/>
</g>
<g id="Vector">
<use xlink:href="#path10_fill" transform="translate(2187.44 385)" fill="#ABA8A4"/>
</g>
<g id="Vector">
<use xlink:href="#path11_fill" transform="translate(2197.04 393.256)" fill="#5C5954"/>
</g>
<g id="Subtract">
<use xlink:href="#path12_fill" transform="translate(2137.84 402.465)" fill="#ABA8A4"/>
<use xlink:href="#path13_stroke" transform="translate(2137.84 402.465)" fill="#6E6E6E"/>
</g>
<g id="Subtract">
<use xlink:href="#path14_fill" transform="translate(2153.51 414.582)" fill="#2A2926"/>
</g>
<g id="Subtract">
<use xlink:href="#path15_fill" transform="translate(2147 428)" fill="#262825"/>
</g>
</g>
</g>
<defs>
<radialGradient id="paint0_radial" cx="0.5" cy="0.5" r="0.5" gradientUnits="userSpaceOnUse" gradientTransform="matrix(7.16418e-15 61 -117 3.73517e-15 117 -3.73517e-15)">
<stop offset="0" stop-color="#171717"/>
<stop offset="1" stop-color="#171717" stop-opacity="0"/>
</radialGradient>
<radialGradient id="paint1_radial" cx="0.5" cy="0.5" r="0.5" gradientUnits="userSpaceOnUse" gradientTransform="matrix(6.14961e-15 99.0663 -100.431 6.06606e-15 100.431 -6.06606e-15)">
<stop offset="0" stop-color="#573C2D"/>
<stop offset="1" stop-color="#1F1D16"/>
</radialGradient>
<path id="path0_fill" d="M 117 30.5C 117 47.3447 90.8087 61 58.5 61C 26.1913 61 0 47.3447 0 30.5C 0 13.6553 26.1913 0 58.5 0C 90.8087 0 117 13.6553 117 30.5Z"/>
<path id="path1_fill" d="M 100.431 49.5332C 100.431 76.8896 77.9486 99.0663 50.2154 99.0663C 22.4822 99.0663 0 76.8896 0 49.5332C 0 22.1768 22.4822 0 50.2154 0C 77.9486 0 100.431 22.1768 100.431 49.5332Z"/>
<path id="path2_stroke_2x" d="M 97.4308 49.5332C 97.4308 75.1942 76.3306 96.0663 50.2154 96.0663L 50.2154 102.066C 79.5666 102.066 103.431 78.585 103.431 49.5332L 97.4308 49.5332ZM 50.2154 96.0663C 24.1002 96.0663 3 75.1942 3 49.5332L -3 49.5332C -3 78.585 20.8642 102.066 50.2154 102.066L 50.2154 96.0663ZM 3 49.5332C 3 23.8722 24.1002 3 50.2154 3L 50.2154 -3C 20.8642 -3 -3 20.4813 -3 49.5332L 3 49.5332ZM 50.2154 3C 76.3306 3 97.4308 23.8722 97.4308 49.5332L 103.431 49.5332C 103.431 20.4813 79.5666 -3 50.2154 -3L 50.2154 3Z"/>
<path id="path3_fill" fill-rule="evenodd" d="M 68.3574 0C 63.9355 11.5362 50.6567 19.9137 34.9622 19.9137C 19.2678 19.9137 5.98901 11.5362 1.56714 0C 0.548584 2.09 0 4.31183 0 6.6153C 0 18.9197 15.6531 28.8944 34.9622 28.8944C 54.2715 28.8944 69.9246 18.9197 69.9246 6.6153C 69.9246 4.31183 69.376 2.09 68.3574 0Z"/>
<path id="path4_stroke_2x" d="M 68.3574 0L 71.0542 -1.31427L 68.0283 -7.52324L 65.5562 -1.07374L 68.3574 0ZM 1.56714 0L 4.3684 -1.07374L 1.89627 -7.52324L -1.12965 -1.31427L 1.56714 0ZM 65.5562 -1.07374C 61.6746 9.05274 49.7046 16.9137 34.9622 16.9137L 34.9622 22.9137C 51.6089 22.9137 66.1965 14.0196 71.1587 1.07374L 65.5562 -1.07374ZM 34.9622 16.9137C 20.22 16.9137 8.24994 9.05275 4.3684 -1.07374L -1.23413 1.07374C 3.72808 14.0196 18.3157 22.9137 34.9622 22.9137L 34.9622 16.9137ZM 3 6.6153C 2.97805 4.67404 3.36899 3.1124 4.26393 1.31427L -1.12965 -1.31427C -2.27182 1.06759 -2.97805 3.94962 -3 6.6153L 3 6.6153ZM 34.9622 25.8944C 25.7908 25.8944 17.6284 23.5197 11.8524 19.839C 6.04123 16.136 3 11.388 3 6.6153L -3 6.6153C -3 14.147 1.7853 20.5386 8.62798 24.899C 15.5058 29.2817 24.8244 31.8944 34.9622 31.8944L 34.9622 25.8944ZM 66.9246 6.6153C 66.9246 11.388 63.8833 16.1359 58.0722 19.839C 52.2961 23.5197 44.1336 25.8944 34.9622 25.8944L 34.9622 31.8944C 45.1 31.8944 54.4187 29.2817 61.2965 24.899C 68.1393 20.5386 72.9246 14.147 72.9246 6.6153L 66.9246 6.6153ZM 65.6606 1.31427C 66.5556 3.1124 66.9465 4.67404 66.9246 6.6153L 72.9246 6.6153C 72.9026 3.94962 72.1964 1.06759 71.0542 -1.31427L 65.6606 1.31427Z"/>
<path id="path5_fill" fill-rule="evenodd" d="M 0 16.0532C 4.49316 6.75345 17.9866 0 33.9341 0C 49.8816 0 63.375 6.75345 67.8682 16.0532C 63.375 27.8762 49.8816 36.4619 33.9341 36.4619C 17.9866 36.4619 4.49316 27.8762 0 16.0532Z"/>
<path id="path6_stroke_2x" d="M 0 16.0532L -2.70124 14.7481L -3.26325 15.9114L -2.80432 17.119L 0 16.0532ZM 67.8682 16.0532L 70.6725 17.119L 71.1314 15.9114L 70.5694 14.7481L 67.8682 16.0532ZM 2.70124 17.3583C 6.48438 9.52814 18.5619 3 33.9341 3L 33.9341 -3C 17.4112 -3 2.50195 3.97876 -2.70124 14.7481L 2.70124 17.3583ZM 33.9341 3C 49.3062 3 61.3838 9.52814 65.1669 17.3583L 70.5694 14.7481C 65.3662 3.97876 50.4569 -3 33.9341 -3L 33.9341 3ZM 65.0638 14.9875C 61.1045 25.4059 48.9141 33.4619 33.9341 33.4619L 33.9341 39.4619C 50.849 39.4619 65.6455 30.3465 70.6725 17.119L 65.0638 14.9875ZM 33.9341 33.4619C 18.954 33.4619 6.7637 25.4059 2.80432 14.9875L -2.80432 17.119C 2.22263 30.3465 17.0191 39.4619 33.9341 39.4619L 33.9341 33.4619Z"/>
<path id="path7_fill" d="M 64.0975 22.3587C 64.0975 34.7071 49.7488 44.7174 32.0487 44.7174C 14.3487 44.7174 0 34.7071 0 22.3587C 0 10.0103 14.3487 0 32.0487 0C 49.7488 0 64.0975 10.0103 64.0975 22.3587Z"/>
<path id="path8_stroke_2x" d="M 61.0975 22.3587C 61.0975 27.2807 58.2415 32.0475 52.9941 35.7083C 47.7569 39.3621 40.3609 41.7174 32.0487 41.7174L 32.0487 47.7174C 41.4366 47.7174 50.065 45.0676 56.4271 40.6291C 62.7791 36.1977 67.0975 29.7851 67.0975 22.3587L 61.0975 22.3587ZM 32.0487 41.7174C 23.7366 41.7174 16.3406 39.3621 11.1034 35.7083C 5.85595 32.0475 3 27.2807 3 22.3587L -3 22.3587C -3 29.7851 1.3184 36.1977 7.67036 40.6291C 14.0325 45.0676 22.6608 47.7174 32.0487 47.7174L 32.0487 41.7174ZM 3 22.3587C 3 17.4367 5.85595 12.67 11.1034 9.00913C 16.3406 5.35537 23.7366 3 32.0487 3L 32.0487 -3C 22.6608 -3 14.0325 -0.3502 7.67036 4.08831C 1.3184 8.51973 -3 14.9323 -3 22.3587L 3 22.3587ZM 32.0487 3C 40.3609 3 47.7569 5.35537 52.9941 9.00913C 58.2415 12.67 61.0975 17.4367 61.0975 22.3587L 67.0975 22.3587C 67.0975 14.9323 62.7791 8.51973 56.4271 4.08831C 50.065 -0.3502 41.4366 -3 32.0487 -3L 32.0487 3Z"/>
<path id="path9_fill" d="M 42.1604 6.97973C 26.3139 -2.65029 17.0409 -1.99714 0 6.97973C 6.32406 11.7298 29.5123 17.0994 42.1604 6.97973Z"/>
<path id="path10_fill" d="M 15.9387 8.42752L 30.6777 0L 42.3318 8.42752L 26.5645 17.027L 9.59748 36.1179L 0 24.9386L 15.9387 8.42752Z"/>
<path id="path11_fill" d="M 27.0398 41.6122L 34.9623 44.0295L 32.7233 0L 16.5339 8.2879L 0 27.4537L 4.13347 30.389L 11.5392 27.4537L 18.7729 13.8132L 27.0398 41.6122Z"/>
<path id="path12_fill" fill-rule="evenodd" d="M 52.9331 29.4512C 56.3574 27.6699 58.6284 25.1919 59.2248 22.167C 60.8806 13.7687 48.9995 4.33485 32.6875 1.09602C 16.3755 -2.14281 1.80978 2.03978 0.154021 10.4381C -1.11771 16.8891 5.59738 23.9509 16.1726 28.3469C 15.6198 27.1848 15.3225 25.951 15.3225 24.6725C 15.3225 17.7384 24.0698 12.1173 34.8603 12.1173C 45.6506 12.1173 54.3979 17.7384 54.3979 24.6725C 54.3979 26.3645 53.8772 27.9782 52.9331 29.4512Z"/>
<path id="path13_stroke" d="M 59.2248 22.167L 60.6965 22.4572L 60.6965 22.4571L 59.2248 22.167ZM 52.9331 29.4512L 51.6702 28.6418L 48.6345 33.3781L 53.6253 30.7819L 52.9331 29.4512ZM 0.154021 10.4381L -1.31765 10.1479L -1.31765 10.148L 0.154021 10.4381ZM 16.1726 28.3469L 15.5968 29.732L 19.2059 31.2323L 17.5272 27.7027L 16.1726 28.3469ZM 57.7532 21.8768C 57.2753 24.3001 55.4246 26.4643 52.2408 28.1205L 53.6253 30.7819C 57.2902 28.8755 59.9814 26.0837 60.6965 22.4572L 57.7532 21.8768ZM 32.3953 2.5673C 40.387 4.14429 47.1119 7.16492 51.7613 10.8714C 56.4097 14.5623 58.4165 18.5123 57.7532 21.8769L 60.6965 22.4571C 61.6889 17.4234 58.583 12.4573 53.6268 8.52197C 48.6716 4.60227 41.2999 1.28658 32.9796 -0.375257L 32.3953 2.5673ZM 1.62569 10.7282C 2.28874 7.36513 5.64103 4.48095 11.3387 2.84486C 17.0437 1.19454 24.4075 0.971476 32.3953 2.5673L 32.9796 -0.375257C 24.6554 -2.01826 16.5803 -1.76945 10.5107 -0.0386096C 4.43349 1.70647 -0.324939 5.11274 -1.31765 10.1479L 1.62569 10.7282ZM 16.7483 26.9618C 11.5904 24.8252 7.53873 22.1457 4.82988 19.1533C 2.16449 16.2256 1.1164 13.3117 1.6257 10.7282L -1.31765 10.148C -2.08009 14.0155 -0.406493 17.8579 2.61152 21.1729C 5.58608 24.4232 10.1796 27.4727 15.5968 29.732L 16.7483 26.9618ZM 17.5272 27.7027C 17.0339 26.6842 16.812 25.774 16.8225 24.6725L 13.8225 24.6725C 13.833 26.1279 14.2058 27.6853 14.818 28.9912L 17.5272 27.7027ZM 16.8225 24.6725C 16.8225 21.8892 18.5802 19.1615 21.8559 17.0565C 25.1154 14.9619 29.7091 13.6173 34.8603 13.6173L 34.8603 10.6173C 29.2211 10.6173 24.0458 12.0832 20.234 14.5327C 16.4384 16.9718 13.8225 20.5218 13.8225 24.6725L 16.8225 24.6725ZM 34.8603 13.6173C 40.0114 13.6173 44.605 14.9619 47.8646 17.0565C 51.1402 19.1615 52.8979 21.8892 52.8979 24.6725L 55.8979 24.6725C 55.8979 20.5218 53.282 16.9718 49.4864 14.5327C 45.6747 12.0832 40.4995 10.6173 34.8603 10.6173L 34.8603 13.6173ZM 52.8979 24.6725C 52.9161 26.1313 52.5207 27.3378 51.6702 28.6418L 54.1959 30.2606C 55.2336 28.6185 55.8797 26.5976 55.8979 24.6725L 52.8979 24.6725Z"/>
<path id="path14_fill" fill-rule="evenodd" d="M 38.1104 14.5376C 38.2942 13.8477 38.3899 13.1385 38.3899 12.4147C 38.3899 5.55826 29.7961 0 19.1951 0C 8.59399 0 0 5.55826 0 12.4147C 0 13.3492 0.159668 14.2596 0.462402 15.1352C 6.14673 10.9124 12.71 8.5032 19.7002 8.5032C 26.3538 8.5032 32.6204 10.6859 38.1104 14.5376Z"/>
<path id="path15_fill" fill-rule="evenodd" d="M 0.0239258 0.687622L 0 0.687958C 11.6541 19.4349 37.1902 20.6388 50.2153 0L 49.4492 0.010498C 45.5273 6.66876 31.7803 9.59619 16.5232 6.5668C 10.2454 5.32034 4.58667 3.23901 0.0239258 0.687622Z"/>
</defs>
</svg>
