<svg width="37" height="39" viewBox="0 0 37 39" version="1.1" xmlns="http://www.w3.org/2000/svg" xmlns:xlink="http://www.w3.org/1999/xlink">
<title>fry-basket</title>
<desc>Created using Figma</desc>
<g id="Canvas" transform="translate(-2560 -1144)">
<g id="fry-basket">
<g id="Vector (Stroke)">
<use xlink:href="#path0_fill" transform="translate(2560.42 1159.3)" fill="#B1BEC7"/>
</g>
<g id="Vector 2">
<use xlink:href="#path1_fill" transform="translate(2586.05 1146.14)"/>
</g>
<g id="Vector 3">
<use xlink:href="#path2_fill" transform="translate(2592.64 1144.79)"/>
</g>
<g id="Vector 3 (Stroke)">
<use xlink:href="#path3_fill" transform="translate(2591.61 1144.11)"/>
</g>
<g id="Vector 4">
<use xlink:href="#path4_fill" transform="translate(2584.29 1154.18)" fill="#828282"/>
</g>
<g id="Vector 4 (Stroke)">
<use xlink:href="#path5_fill" transform="translate(2583.75 1153.62)" fill="#B1BEC7"/>
</g>
</g>
</g>
<defs>
<path id="path0_fill" fill-rule="evenodd" d="M 20.6424 0L 29.1159 2.59284L 26.9301 13.0072L 10.5646 23.044L 3.85333 19.9972L 0 8.66577L 20.6424 0ZM 20.3225 0.867288L 1.29542 8.85495L 4.95424 10.3869L 20.3225 3.26077L 20.3225 0.867288ZM 20.3225 4.00575L 5.79852 10.7404L 9.47524 12.2798L 20.3225 6.74621L 20.3225 4.00575ZM 9.22264 13.1674L 9.42002 15.1478L 7.15528 14.2221L 9.22264 13.1674ZM 6.32958 13.8845L 8.68639 12.6822L 4.96815 11.1254L 2.44348 12.2961L 6.32958 13.8845ZM 1.79698 11.8509L 4.12387 10.7719L 0.982864 9.4568L 1.79698 11.8509ZM 2.15683 12.9091L 5.53499 14.2899L 3.05637 15.5543L 2.15683 12.9091ZM 3.42631 16.6422L 4.31669 19.2606L 6.60936 18.0064L 3.42631 16.6422ZM 7.399 18.3449L 4.88174 19.7219L 10.1436 22.1106L 9.86093 19.4L 7.399 18.3449ZM 9.78065 18.6303L 8.15271 17.9326L 9.62394 17.1278L 9.78065 18.6303ZM 10.5353 19.3509L 23.3135 11.9924L 25.8461 12.8791L 10.8214 22.0936L 10.5353 19.3509ZM 26.3776 12.3491L 24.0868 11.547L 26.884 9.93623L 26.3776 12.3491ZM 27.1179 8.82213L 24.6837 7.98287L 27.6298 6.3833L 27.1179 8.82213ZM 27.8556 5.30719L 25.822 4.68999L 28.2456 3.44908L 27.8556 5.30719ZM 27.8256 2.90482L 20.9984 0.815724L 20.9984 3.22598L 24.891 4.40741L 27.8256 2.90482ZM 24.0249 4.85085L 20.9984 3.93228L 20.9984 6.4005L 24.0249 4.85085ZM 20.9984 7.42715L 20.9984 9.21479L 23.0121 8.12143L 20.9984 7.42715ZM 23.8174 7.68419L 21.5207 6.89234L 24.956 5.13344L 27.2391 5.82637L 23.8174 7.68419ZM 23.8784 8.42012L 26.5581 9.34402L 23.2446 11.2521L 20.9984 10.4657L 20.9984 9.98385L 23.8784 8.42012ZM 20.3225 9.58176L 20.3225 7.50586L 9.87094 12.8573L 10.0978 15.1334L 20.3225 9.58176ZM 10.1715 15.8624L 20.3225 10.3508L 20.3225 10.5051L 10.1908 16.0473L 10.1715 15.8624ZM 10.2668 16.7761L 10.4586 18.6151L 22.4713 11.6975L 20.6907 11.074L 10.2668 16.7761ZM 9.54793 16.399L 7.36307 17.5941L 3.65792 16.0062L 6.36068 14.6274L 9.49686 15.9093L 9.54793 16.399Z"/>
<path id="path1_fill" d="M 2.66639 8.27931L 0 7.59875L 7.28033 0L 9.25604 0.589815L 2.66639 8.27931Z"/>
<path id="path2_fill" d="M 3.67047 0.89125L 1.23492 2.87831L 0 2.53571L 1.23492 0.411602C 2.84719 -0.513412 3.80768 0.331673 3.67047 0.89125Z"/>
<path id="path3_fill" fill-rule="evenodd" d="M 4.37871 0.141236C 4.9885 0.379104 5.53 0.99935 5.35123 1.72839L 5.29735 1.94811L 2.41556 4.29924L 0 3.62911L 1.76594 0.591625L 1.92293 0.501557C 2.85265 -0.0318569 3.71249 -0.118643 4.37871 0.141236ZM 2.74826 1.5914L 2.04869 2.79469L 2.10298 2.80975L 3.84731 1.38662C 3.66273 1.33 3.29895 1.31171 2.74826 1.5914ZM 4.03691 1.50465C 4.03586 1.50512 4.03281 1.50078 4.03094 1.49022C 4.03703 1.49891 4.03797 1.50418 4.03691 1.50465Z"/>
<path id="path4_fill" d="M 0.257399 2.08985C 0.257399 1.51428 1.44659 0.456798 2.04118 0L 3.4476 0.376862C 2.85301 0.83366 1.66382 1.89115 1.66382 2.46671C 1.66382 3.04228 1.4979 5.40107 1.40642 6.62301L 0 6.24615C 0.0914759 5.02421 0.257399 2.66541 0.257399 2.08985Z"/>
<path id="path5_fill" fill-rule="evenodd" d="M 2.46757 0L 5.10775 0.707456L 4.29325 1.3332C 4.00566 1.55395 3.58999 1.90601 3.23806 2.2797C 3.06279 2.4649 2.92487 2.62908 2.82171 2.79075C 2.76304 2.8797 2.73744 2.95889 2.72417 2.99991C 2.71503 3.02818 2.71175 3.03833 2.70755 3.02108C 2.70724 3.61444 2.5403 5.99215 2.44874 7.21522L 2.40306 7.82537L 0 7.18145L 0.0313499 6.76268C 0.122742 5.54188 0.287647 3.20199 0.287334 2.64422C 0.287334 2.34862 0.429941 2.07116 0.56338 1.86431C 0.701765 1.65155 0.898309 1.41489 1.09466 1.20668C 1.48597 0.793531 1.96219 0.388454 2.2692 0.152403L 2.46757 0ZM 2.69277 1.1099C 2.42932 1.32427 2.11047 1.60677 1.83164 1.90283C 1.65637 2.08804 1.51845 2.25222 1.41528 2.41389C 1.35662 2.50284 1.33101 2.58203 1.31775 2.62305C 1.30861 2.65131 1.30532 2.66146 1.30113 2.64422C 1.30085 3.17544 1.16701 5.13685 1.07328 6.41948L 1.48271 6.52919C 1.57462 5.26129 1.69402 3.49578 1.69376 3.02108C 1.69376 2.72549 1.83636 2.44802 1.9698 2.24117C 2.10819 2.02842 2.30473 1.79176 2.50108 1.58354C 2.63427 1.44292 2.7773 1.30323 2.92014 1.17083L 2.69277 1.1099Z"/>
</defs>
</svg>
