<svg width="142" height="138" viewBox="0 0 142 138" version="1.1" xmlns="http://www.w3.org/2000/svg" xmlns:xlink="http://www.w3.org/1999/xlink">
<title>spatula</title>
<desc>Created using Figma</desc>
<g id="Canvas" transform="translate(-1729 -384)">
<g id="spatula">
<g id="Vector 2">
<use xlink:href="#path0_fill" transform="matrix(-1 0 0 1 1870 385)" fill="#FCF7D7"/>
<use xlink:href="#path1_stroke" transform="matrix(-1 0 0 1 1870 385)"/>
</g>
<g id="Vector 2">
<use xlink:href="#path2_fill" transform="matrix(-1 0 0 1 1830.15 449.588)" fill="#858585"/>
<use xlink:href="#path3_stroke" transform="matrix(-1 0 0 1 1830.15 449.588)"/>
</g>
<g id="Vector 2.1">
<use xlink:href="#path4_fill" transform="matrix(-1 0 0 1 1832.81 424.378)" fill="#858585"/>
<use xlink:href="#path5_stroke" transform="matrix(-1 0 0 1 1832.81 424.378)"/>
</g>
<g id="Vector 3">
<use xlink:href="#path6_fill" transform="matrix(-1 0 0 1 1830.71 428.885)" fill="#B1BEC7"/>
<use xlink:href="#path7_stroke" transform="matrix(-1 0 0 1 1830.71 428.885)"/>
</g>
</g>
</g>
<defs>
<path id="path0_fill" d="M 50.0879 35.2942L 50.0879 39.9417L 37.8865 44.3076L 39.9902 50.5043L 39.7097 64.0244C 39.7097 57.8277 33.6791 50.2227 30.8741 46.8426C 25.1474 39.9417 19.7946 33.9103 10.3981 25.7175C 3.37002 19.5897 -1.7806 13.4422 0.580808 6.28233C 3.41094 -2.2987 11.9408 -0.0551738 14.325 1.35313C 16.7092 2.76144 30.8741 23.4641 43.4963 31.6325C 45.9691 33.2328 50.0879 35.2942 50.0879 35.2942Z"/>
<path id="path1_stroke" d="M 50.0879 39.9417L 50.2564 40.4125L 50.5879 40.2939L 50.5879 39.9417L 50.0879 39.9417ZM 50.0879 35.2942L 50.5879 35.2942L 50.5879 34.9853L 50.3117 34.8471L 50.0879 35.2942ZM 43.4963 31.6325L 43.2247 32.0523L 43.2247 32.0523L 43.4963 31.6325ZM 14.325 1.35313L 14.5793 0.922627L 14.5793 0.922627L 14.325 1.35313ZM 0.580808 6.28233L 0.105967 6.12573L 0.580808 6.28233ZM 30.8741 46.8426L 31.2589 46.5233L 31.2589 46.5233L 30.8741 46.8426ZM 39.7097 64.0244L 39.2097 64.0244L 40.2096 64.0348L 39.7097 64.0244ZM 10.3981 25.7175L 10.0695 26.0943L 10.0695 26.0943L 10.3981 25.7175ZM 37.8865 44.3076L 37.718 43.8368L 37.2549 44.0025L 37.413 44.4683L 37.8865 44.3076ZM 39.9902 50.5043L 40.4901 50.5147L 40.4919 50.4268L 40.4636 50.3436L 39.9902 50.5043ZM 50.5879 39.9417L 50.5879 35.2942L 49.5879 35.2942L 49.5879 39.9417L 50.5879 39.9417ZM 50.0879 35.2942C 50.3117 34.8471 50.3117 34.8471 50.3117 34.8471C 50.3117 34.8471 50.3116 34.8471 50.3116 34.847C 50.3115 34.847 50.3113 34.8469 50.3111 34.8468C 50.3106 34.8465 50.3099 34.8462 50.309 34.8457C 50.307 34.8447 50.3042 34.8433 50.3003 34.8414C 50.2925 34.8375 50.2811 34.8317 50.2659 34.8241C 50.2353 34.8087 50.1904 34.786 50.1321 34.7565C 50.015 34.6972 49.8457 34.6111 49.6342 34.5024C 49.2105 34.2847 48.6219 33.9788 47.9551 33.6225C 46.6199 32.909 44.9901 32.004 43.768 31.2128L 43.2247 32.0523C 44.4754 32.8613 46.1414 33.7871 47.4838 34.5045C 48.1557 34.8635 48.7514 35.1731 49.1772 35.3918C 49.3905 35.5014 49.5623 35.5889 49.6802 35.6486C 49.7393 35.6785 49.7853 35.7017 49.8163 35.7173C 49.8318 35.7251 49.8438 35.7311 49.8518 35.7351C 49.8558 35.7372 49.8589 35.7387 49.8609 35.7397C 49.8619 35.7402 49.8628 35.7406 49.8633 35.7409C 49.8635 35.741 49.8638 35.7412 49.8639 35.7412C 49.864 35.7413 49.864 35.7413 49.8641 35.7413C 49.8641 35.7413 49.8641 35.7413 50.0879 35.2942ZM 43.768 31.2128C 37.525 27.1726 30.8697 20.007 25.4524 13.634C 22.7484 10.453 20.3625 7.48115 18.5003 5.2125C 17.5688 4.07763 16.7639 3.11355 16.1182 2.39046C 15.4911 1.68824 14.957 1.14572 14.5793 0.922627L 14.0707 1.78364C 14.2891 1.91262 14.7191 2.32513 15.3723 3.05655C 16.007 3.76711 16.7985 4.7153 17.7274 5.84697C 19.5861 8.11142 21.9774 11.0899 24.6905 14.2816C 30.1072 20.6541 36.8455 27.924 43.2247 32.0523L 43.768 31.2128ZM 14.5793 0.922627C 13.3062 0.170627 10.4684 -0.775315 7.56027 -0.424674C 4.59789 -0.067487 1.58618 1.63768 0.105967 6.12573L 1.05565 6.43894C 2.40557 2.34596 5.07384 0.882368 7.67997 0.568136C 10.3404 0.247359 12.9596 1.12733 14.0707 1.78364L 14.5793 0.922627ZM 30.4894 47.1619C 31.8894 48.849 34.0753 51.5649 35.915 54.6344C 37.762 57.7141 39.2097 61.0669 39.2097 64.0244L 40.2097 64.0244C 40.2097 60.7852 38.6421 57.2372 36.7726 54.1201C 34.8956 50.993 32.6638 48.2163 31.2589 46.5233L 30.4894 47.1619ZM 0.105967 6.12573C -1.13021 9.87383 -0.3877 13.3501 1.53684 16.6394C 3.44299 19.8895 6.54207 23.0183 10.0695 26.0943L 10.7267 25.3406C 7.22605 22.2888 4.23579 19.28 2.39996 16.1344C 0.582519 13.0281 -0.0695823 9.85067 1.05565 6.43894L 0.105967 6.12573ZM 10.0695 26.0943C 19.4426 34.2654 24.768 40.2674 30.4894 47.1619L 31.2589 46.5233C 25.5268 39.6161 20.1466 33.5552 10.7267 25.3406L 10.0695 26.0943ZM 49.9195 39.471L 37.718 43.8368L 38.0549 44.7784L 50.2564 40.4125L 49.9195 39.471ZM 37.413 44.4683L 39.5167 50.665L 40.4636 50.3436L 38.3599 44.1469L 37.413 44.4683ZM 39.4903 50.4939L 39.2098 64.014L 40.2096 64.0348L 40.4901 50.5147L 39.4903 50.4939Z"/>
<path id="path2_fill" d="M 31.4153 0L 0 13.9426L 1.68296 19.1535L 64.0928 69.4313C 67.599 71.403 77.6967 73.6282 90.0385 66.7555C 102.38 59.8828 100.884 52.0618 98.5935 49.0104L 31.4153 0Z"/>
<path id="path3_stroke" d="M 0 13.9426L -0.202829 13.4856L -0.614084 13.6681L -0.4758 14.0963L 0 13.9426ZM 31.4153 0L 31.71 -0.403929L 31.4766 -0.574223L 31.2125 -0.457012L 31.4153 0ZM 98.5935 49.0104L 98.9934 48.7102L 98.9485 48.6505L 98.8882 48.6064L 98.5935 49.0104ZM 90.0385 66.7555L 90.2817 67.1923L 90.2817 67.1923L 90.0385 66.7555ZM 64.0928 69.4313L 63.7791 69.8207L 63.8115 69.8468L 63.8477 69.8672L 64.0928 69.4313ZM 1.68296 19.1535L 1.20716 19.3071L 1.25304 19.4492L 1.36928 19.5428L 1.68296 19.1535ZM 0.202829 14.3996L 31.6181 0.457012L 31.2125 -0.457012L -0.202829 13.4856L 0.202829 14.3996ZM 31.1206 0.403929L 98.2988 49.4143L 98.8882 48.6064L 31.71 -0.403929L 31.1206 0.403929ZM 98.1937 49.3105C 99.256 50.7256 100.158 53.2858 99.3212 56.3169C 98.4856 59.3432 95.8915 62.9238 89.7952 66.3187L 90.2817 67.1923C 96.5272 63.7144 99.3559 59.9483 100.285 56.583C 101.213 53.2226 100.222 50.3465 98.9934 48.7102L 98.1937 49.3105ZM 89.7952 66.3187C 77.5955 73.1123 67.6829 70.8766 64.3379 68.9955L 63.8477 69.8672C 67.515 71.9294 77.798 74.1441 90.2817 67.1923L 89.7952 66.3187ZM 64.4065 69.042L 1.99664 18.7641L 1.36928 19.5428L 63.7791 69.8207L 64.4065 69.042ZM 2.15876 18.9998L 0.4758 13.7889L -0.4758 14.0963L 1.20716 19.3071L 2.15876 18.9998Z"/>
<path id="path4_fill" d="M 2.1037 10.8442L 18.2321 4.5067L 12.3417 0L 0 4.5067L 2.1037 10.8442Z"/>
<path id="path5_stroke" d="M 18.2321 4.5067L 18.4149 4.97206L 19.2396 4.64801L 18.5359 4.1096L 18.2321 4.5067ZM 2.1037 10.8442L 1.62916 11.0018L 1.79541 11.5026L 2.28656 11.3096L 2.1037 10.8442ZM 0 4.5067L -0.171503 4.03703L -0.627462 4.20353L -0.474539 4.66422L 0 4.5067ZM 12.3417 0L 12.6455 -0.397104L 12.4278 -0.563717L 12.1702 -0.469666L 12.3417 0ZM 18.0492 4.04134L 1.92084 10.3789L 2.28656 11.3096L 18.4149 4.97206L 18.0492 4.04134ZM 0.171503 4.97637L 12.5132 0.469666L 12.1702 -0.469666L -0.171503 4.03703L 0.171503 4.97637ZM 12.0379 0.397104L 17.9283 4.9038L 18.5359 4.1096L 12.6455 -0.397104L 12.0379 0.397104ZM 2.57824 10.6867L 0.474539 4.34918L -0.474539 4.66422L 1.62916 11.0018L 2.57824 10.6867Z"/>
<path id="path6_fill" d="M 0.560987 34.6453L 0 6.33755L 16.1284 0L 31.9763 20.7027L 0.560987 34.6453Z"/>
<path id="path7_stroke" d="M 0 6.33755L -0.182861 5.87218L -0.506798 5.99947L -0.499902 6.34745L 0 6.33755ZM 0.560987 34.6453L 0.0610854 34.6552L 0.0759955 35.4075L 0.763817 35.1023L 0.560987 34.6453ZM 31.9763 20.7027L 32.1791 21.1597L 32.7588 20.9024L 32.3733 20.3987L 31.9763 20.7027ZM 16.1284 0L 16.5254 -0.303924L 16.2963 -0.603203L 15.9455 -0.465362L 16.1284 0ZM -0.499902 6.34745L 0.0610854 34.6552L 1.06089 34.6353L 0.499902 6.32764L -0.499902 6.34745ZM 0.763817 35.1023L 32.1791 21.1597L 31.7734 20.2456L 0.358158 34.1882L 0.763817 35.1023ZM 32.3733 20.3987L 16.5254 -0.303924L 15.7314 0.303924L 31.5792 21.0066L 32.3733 20.3987ZM 15.9455 -0.465362L -0.182861 5.87218L 0.182861 6.80291L 16.3112 0.465362L 15.9455 -0.465362Z"/>
</defs>
</svg>
